<?xml version="1.0" standalone="no"?>
<!DOCTYPE svg PUBLIC "-//W3C//DTD SVG 20010904//EN"
 "http://www.w3.org/TR/2001/REC-SVG-20010904/DTD/svg10.dtd">
<svg version="1.0" xmlns="http://www.w3.org/2000/svg"
 width="500.000000pt" height="500.000000pt" viewBox="0 0 500.000000 500.000000"
 preserveAspectRatio="xMidYMid meet">
<metadata>
Created by potrace 1.14, written by Peter Selinger 2001-2017
</metadata>
<g transform="translate(0.000000,500.000000) scale(0.100000,-0.100000)"
fill="#000000" stroke="none">
<path d="M161 3388 c-10 -28 -11 -27 22 -30 15 -1 27 -7 27 -13 0 -5 -18 -73
-39 -150 -21 -77 -37 -143 -35 -146 2 -4 23 -6 46 -5 l42 1 28 100 c16 55 35
123 43 150 8 28 18 65 21 83 l7 32 -77 0 c-70 0 -77 -2 -85 -22z"/>
<path d="M301 3258 c-67 -240 -65 -213 -15 -215 23 -1 47 3 52 10 5 7 17 41
26 77 16 60 30 90 40 79 2 -2 -5 -35 -15 -74 -10 -38 -19 -74 -19 -80 0 -5 20
-11 45 -13 l44 -2 15 52 c8 29 29 105 46 168 17 63 34 123 37 133 4 16 -1 18
-43 15 l-47 -3 -22 -69 c-11 -38 -26 -71 -33 -74 -15 -5 -16 -10 8 73 11 38
20 71 20 72 0 2 -22 3 -48 3 l-49 0 -42 -152z"/>
<path d="M575 3398 c-17 -50 -93 -343 -90 -348 2 -3 34 -7 70 -8 60 -1 67 1
74 21 9 24 -10 44 -30 31 -8 -4 -9 4 -4 27 8 41 28 86 35 80 3 -2 15 1 28 8
29 16 29 49 -1 53 -22 3 -23 4 -10 48 10 36 18 46 35 47 21 2 48 27 48 45 0
14 -150 10 -155 -4z"/>
<path d="M781 3401 c-5 -4 -12 -19 -15 -36 -12 -63 -26 -128 -35 -164 -6 -20
-12 -48 -15 -64 -3 -15 -7 -35 -10 -45 -3 -9 -7 -28 -10 -42 -5 -30 -36 -168
-115 -520 -33 -146 -62 -276 -65 -290 -2 -14 -13 -63 -25 -110 -11 -47 -22
-97 -25 -110 -2 -14 -9 -45 -15 -70 -5 -25 -12 -56 -15 -70 -2 -14 -14 -65
-26 -115 -12 -49 -24 -109 -27 -132 l-5 -42 42 4 c23 2 85 7 138 10 54 3 113
8 132 10 19 2 85 7 145 11 61 4 124 8 140 10 17 1 42 2 56 3 27 1 37 14 45 61
3 14 9 43 14 65 16 68 19 66 -77 65 -49 -1 -113 -1 -145 -1 l-56 1 15 63 c8
34 17 73 19 87 3 14 12 54 20 90 9 36 18 76 20 90 3 14 10 45 15 70 6 25 13
55 15 68 3 13 18 80 34 150 16 70 31 138 34 152 3 14 25 115 50 225 91 407
126 564 126 573 0 9 -364 12 -379 3z"/>
<path d="M2955 3030 l-50 -5 -12 -55 c-11 -47 -19 -88 -26 -135 -2 -12 351
-16 359 -4 8 14 45 191 40 196 -6 6 -253 9 -311 3z"/>
<path d="M3299 3019 c-4 -9 -10 -27 -13 -40 -2 -13 -11 -52 -19 -86 -9 -35
-12 -64 -9 -66 4 -2 43 -3 87 -2 101 2 108 -1 100 -34 -4 -14 -9 -37 -11 -51
-3 -14 -13 -63 -24 -110 -25 -112 -59 -270 -64 -295 -2 -11 -19 -85 -36 -165
-18 -80 -34 -152 -35 -160 -2 -8 -13 -58 -24 -110 -12 -52 -21 -96 -21 -97 0
-2 35 -1 78 2 308 21 289 17 297 58 4 18 15 68 25 112 15 64 45 199 75 335 89
405 110 497 116 504 12 13 209 15 210 2 2 -14 4 -4 -32 -163 -33 -148 -33
-183 6 -249 30 -51 53 -70 198 -168 146 -98 162 -130 128 -263 -12 -45 -21
-84 -21 -87 0 -5 109 0 230 10 30 2 74 5 97 6 41 2 42 3 53 48 7 25 14 56 17
70 2 14 8 42 13 63 18 82 -4 158 -64 225 -20 22 -89 78 -154 125 -65 46 -123
91 -129 99 -21 25 -22 65 -2 154 23 104 35 131 63 141 36 12 44 11 62 -2 17
-12 17 -19 -8 -136 -14 -68 -24 -127 -22 -131 2 -3 81 -6 174 -5 l170 0 9 36
c6 20 12 50 15 66 2 17 10 55 16 85 20 98 22 138 10 175 -15 45 -61 90 -107
106 -24 8 -243 11 -740 12 -636 2 -706 0 -714 -14z"/>
<path d="M1399 3025 c-1 -3 -2 -8 -3 -12 -7 -26 -27 -124 -32 -149 -2 -16 -9
-42 -14 -59 -5 -16 -12 -43 -14 -60 -3 -16 -33 -154 -66 -305 -33 -151 -63
-288 -66 -305 -3 -16 -11 -57 -19 -90 -24 -102 -57 -249 -62 -275 -2 -14 -8
-43 -13 -65 -14 -59 -13 -63 17 -59 15 1 72 6 128 9 55 4 116 8 135 10 19 2
82 7 140 10 58 4 114 8 125 10 11 1 26 3 33 4 13 1 24 24 36 74 l6 27 -120 0
-120 0 6 28 c3 15 10 41 14 57 5 17 12 48 16 70 4 22 9 45 10 50 2 6 6 24 9
40 3 17 13 64 23 105 l18 75 59 2 c33 1 81 2 106 2 l47 1 15 63 c9 34 19 77
22 96 3 19 8 38 11 43 3 4 -42 8 -100 8 -122 0 -119 -3 -91 100 8 30 18 71 21
90 3 19 11 60 19 90 7 30 16 67 19 83 l6 27 114 0 115 0 14 53 c9 28 18 68 22
87 4 19 9 43 11 53 5 16 -14 17 -295 17 -166 0 -302 -2 -302 -5z"/>
<path d="M2197 3019 c-82 -20 -154 -75 -190 -147 -12 -23 -51 -168 -61 -227
-1 -11 -6 -31 -9 -45 -8 -30 -87 -385 -93 -418 -3 -13 -23 -104 -45 -202 -36
-163 -40 -203 -30 -281 1 -4 16 -5 34 -3 39 3 200 14 282 19 33 2 87 6 120 9
33 3 105 8 160 12 55 4 111 8 125 9 14 2 39 3 57 4 26 1 32 6 37 29 4 15 8 36
11 47 6 29 70 306 94 405 10 46 18 87 16 90 -2 3 -92 5 -202 5 l-198 0 -22
-90 c-32 -132 -33 -140 -5 -139 26 2 26 3 -8 -155 -28 -132 -59 -173 -111
-147 -34 17 -31 58 30 321 27 121 52 231 55 245 9 46 15 71 20 88 3 9 7 28 10
42 24 132 70 308 84 321 26 25 68 32 86 13 9 -8 16 -19 16 -23 0 -14 -51 -234
-56 -243 -3 -4 12 -8 33 -9 45 -1 281 -1 303 0 19 1 70 201 76 295 5 80 -21
137 -78 165 -37 18 -60 20 -272 19 -127 0 -248 -4 -269 -9z"/>
<path d="M2856 2783 c-5 -18 -34 -142 -42 -178 -2 -11 -6 -31 -9 -45 -3 -14
-7 -34 -9 -45 -3 -11 -14 -63 -26 -115 -12 -52 -24 -106 -26 -120 -3 -14 -9
-38 -14 -55 -4 -16 -12 -48 -16 -70 -4 -22 -8 -44 -10 -50 -3 -12 -19 -85 -28
-130 -3 -11 -14 -62 -25 -112 -23 -101 -25 -116 -13 -110 4 3 57 8 117 12 61
4 121 9 135 10 14 2 44 3 67 4 44 1 40 -4 58 79 11 50 14 64 19 80 3 9 7 28
10 42 2 14 43 198 90 409 47 211 86 390 86 397 0 11 -35 14 -179 14 -162 0
-180 -2 -185 -17z"/>
<path d="M3891 2087 c-5 -12 -20 -73 -33 -135 l-25 -112 31 5 c17 2 72 7 121
10 112 7 199 16 204 21 5 5 41 154 47 195 l4 37 -170 0 c-167 0 -171 0 -179
-21z"/>
</g>
</svg>
